<svg width="30" height="30" viewBox="0 0 30 30" fill="none" xmlns="http://www.w3.org/2000/svg">
<path d="M19.8721 18.8203C20.5811 18.4395 21.3926 18.2227 22.2568 18.2227H22.2598C22.3477 18.2227 22.3887 18.1172 22.3242 18.0586C21.4254 17.252 20.3987 16.6005 19.2861 16.1309C19.2744 16.125 19.2627 16.1221 19.251 16.1162C21.0703 14.7949 22.2539 12.6475 22.2539 10.2246C22.2539 6.21094 19.0078 2.95898 15.0029 2.95898C10.9981 2.95898 7.7549 6.21094 7.7549 10.2246C7.7549 12.6475 8.93849 14.7949 10.7608 16.1162C10.749 16.1221 10.7373 16.125 10.7256 16.1309C9.41603 16.6846 8.24122 17.4785 7.23048 18.4922C6.22558 19.4953 5.42554 20.6844 4.87501 21.9932C4.33335 23.2748 4.04102 24.6479 4.01368 26.0391C4.0129 26.0703 4.01839 26.1014 4.02981 26.1306C4.04124 26.1597 4.05838 26.1862 4.08022 26.2086C4.10207 26.231 4.12817 26.2488 4.15699 26.2609C4.18582 26.2731 4.21678 26.2793 4.24806 26.2793H6.00294C6.12892 26.2793 6.23439 26.1768 6.23732 26.0508C6.29591 23.7891 7.20118 21.6709 8.80372 20.0654C10.459 18.4043 12.6621 17.4902 15.0059 17.4902C16.667 17.4902 18.2608 17.9502 19.6348 18.8115C19.6701 18.8337 19.7106 18.8462 19.7523 18.8477C19.7939 18.8493 19.8352 18.8398 19.8721 18.8203V18.8203ZM15.0059 15.2637C13.6641 15.2637 12.4014 14.7393 11.4492 13.7871C10.9808 13.3199 10.6094 12.7645 10.3565 12.1531C10.1035 11.5417 9.9741 10.8863 9.9756 10.2246C9.9756 8.87988 10.5 7.61426 11.4492 6.66211C12.3984 5.70996 13.6611 5.18555 15.0059 5.18555C16.3506 5.18555 17.6104 5.70996 18.5625 6.66211C19.031 7.12937 19.4024 7.6847 19.6553 8.29612C19.9082 8.90753 20.0376 9.56295 20.0361 10.2246C20.0361 11.5693 19.5117 12.835 18.5625 13.7871C17.6104 14.7393 16.3477 15.2637 15.0059 15.2637ZM25.7813 22.2363H23.3203V19.7754C23.3203 19.6465 23.2149 19.541 23.0859 19.541H21.4453C21.3164 19.541 21.2109 19.6465 21.2109 19.7754V22.2363H18.75C18.6211 22.2363 18.5156 22.3418 18.5156 22.4707V24.1113C18.5156 24.2402 18.6211 24.3457 18.75 24.3457H21.2109V26.8066C21.2109 26.9355 21.3164 27.041 21.4453 27.041H23.0859C23.2149 27.041 23.3203 26.9355 23.3203 26.8066V24.3457H25.7813C25.9102 24.3457 26.0156 24.2402 26.0156 24.1113V22.4707C26.0156 22.3418 25.9102 22.2363 25.7813 22.2363Z" fill="#F24E1E"/>
</svg>
