<svg width="30" height="30" viewBox="0 0 30 30" fill="none" xmlns="http://www.w3.org/2000/svg">
<path d="M13.5 12.75C13.5 12.5511 13.579 12.3603 13.7197 12.2197C13.8603 12.079 14.0511 12 14.25 12H19.5C19.6989 12 19.8897 12.079 20.0303 12.2197C20.171 12.3603 20.25 12.5511 20.25 12.75C20.25 12.9489 20.171 13.1397 20.0303 13.2803C19.8897 13.421 19.6989 13.5 19.5 13.5H14.25C14.0511 13.5 13.8603 13.421 13.7197 13.2803C13.579 13.1397 13.5 12.9489 13.5 12.75ZM13.5 17.25C13.5 17.0511 13.579 16.8603 13.7197 16.7197C13.8603 16.579 14.0511 16.5 14.25 16.5H19.5C19.6989 16.5 19.8897 16.579 20.0303 16.7197C20.171 16.8603 20.25 17.0511 20.25 17.25C20.25 17.4489 20.171 17.6397 20.0303 17.7803C19.8897 17.921 19.6989 18 19.5 18H14.25C14.0511 18 13.8603 17.921 13.7197 17.7803C13.579 17.6397 13.5 17.4489 13.5 17.25ZM13.5 21.75C13.5 21.5511 13.579 21.3603 13.7197 21.2197C13.8603 21.079 14.0511 21 14.25 21H19.5C19.6989 21 19.8897 21.079 20.0303 21.2197C20.171 21.3603 20.25 21.5511 20.25 21.75C20.25 21.9489 20.171 22.1397 20.0303 22.2803C19.8897 22.421 19.6989 22.5 19.5 22.5H14.25C14.0511 22.5 13.8603 22.421 13.7197 22.2803C13.579 22.1397 13.5 21.9489 13.5 21.75ZM12 12.75C12 13.0484 11.8815 13.3345 11.6705 13.5455C11.4595 13.7565 11.1734 13.875 10.875 13.875C10.5766 13.875 10.2905 13.7565 10.0795 13.5455C9.86853 13.3345 9.75 13.0484 9.75 12.75C9.75 12.4516 9.86853 12.1655 10.0795 11.9545C10.2905 11.7435 10.5766 11.625 10.875 11.625C11.1734 11.625 11.4595 11.7435 11.6705 11.9545C11.8815 12.1655 12 12.4516 12 12.75ZM12 17.25C12 17.5484 11.8815 17.8345 11.6705 18.0455C11.4595 18.2565 11.1734 18.375 10.875 18.375C10.5766 18.375 10.2905 18.2565 10.0795 18.0455C9.86853 17.8345 9.75 17.5484 9.75 17.25C9.75 16.9516 9.86853 16.6655 10.0795 16.4545C10.2905 16.2435 10.5766 16.125 10.875 16.125C11.1734 16.125 11.4595 16.2435 11.6705 16.4545C11.8815 16.6655 12 16.9516 12 17.25ZM10.875 22.875C11.1734 22.875 11.4595 22.7565 11.6705 22.5455C11.8815 22.3345 12 22.0484 12 21.75C12 21.4516 11.8815 21.1655 11.6705 20.9545C11.4595 20.7435 11.1734 20.625 10.875 20.625C10.5766 20.625 10.2905 20.7435 10.0795 20.9545C9.86853 21.1655 9.75 21.4516 9.75 21.75C9.75 22.0484 9.86853 22.3345 10.0795 22.5455C10.2905 22.7565 10.5766 22.875 10.875 22.875ZM10.6275 4.5C10.7827 4.06113 11.0701 3.68119 11.4503 3.41254C11.8304 3.14389 12.2845 2.99976 12.75 3H17.25C17.7155 2.99976 18.1696 3.14389 18.5497 3.41254C18.9299 3.68119 19.2173 4.06113 19.3725 4.5H21.75C22.3467 4.5 22.919 4.73705 23.341 5.15901C23.7629 5.58097 24 6.15326 24 6.75V24.75C24 25.3467 23.7629 25.919 23.341 26.341C22.919 26.7629 22.3467 27 21.75 27H8.25C7.65326 27 7.08097 26.7629 6.65901 26.341C6.23705 25.919 6 25.3467 6 24.75V6.75C6 6.15326 6.23705 5.58097 6.65901 5.15901C7.08097 4.73705 7.65326 4.5 8.25 4.5H10.6275ZM12.75 4.5C12.5511 4.5 12.3603 4.57902 12.2197 4.71967C12.079 4.86032 12 5.05109 12 5.25C12 5.44891 12.079 5.63968 12.2197 5.78033C12.3603 5.92098 12.5511 6 12.75 6H17.25C17.4489 6 17.6397 5.92098 17.7803 5.78033C17.921 5.63968 18 5.44891 18 5.25C18 5.05109 17.921 4.86032 17.7803 4.71967C17.6397 4.57902 17.4489 4.5 17.25 4.5H12.75ZM10.6275 6H8.25C8.05109 6 7.86032 6.07902 7.71967 6.21967C7.57902 6.36032 7.5 6.55109 7.5 6.75V24.75C7.5 24.9489 7.57902 25.1397 7.71967 25.2803C7.86032 25.421 8.05109 25.5 8.25 25.5H21.75C21.9489 25.5 22.1397 25.421 22.2803 25.2803C22.421 25.1397 22.5 24.9489 22.5 24.75V6.75C22.5 6.55109 22.421 6.36032 22.2803 6.21967C22.1397 6.07902 21.9489 6 21.75 6H19.3725C19.2173 6.43887 18.9299 6.81881 18.5497 7.08746C18.1696 7.35611 17.7155 7.50024 17.25 7.5H12.75C12.2845 7.50024 11.8304 7.35611 11.4503 7.08746C11.0701 6.81881 10.7827 6.43887 10.6275 6V6Z" fill="#0FA958"/>
</svg>
