<svg xmlns="http://www.w3.org/2000/svg" width="312.68" height="35" viewBox="0 0 312.68 35"><rect class="svg__rect" x="0" y="0" width="119.77" height="35" fill="#31C4F3"/><rect class="svg__rect" x="117.77" y="0" width="194.91" height="35" fill="#389AD5"/><path class="svg__text" d="M19.57 22L14.22 22L14.22 13.47L15.70 13.47L15.70 20.82L19.57 20.82L19.57 22ZM24.48 22L22.94 22L26.16 13.47L27.49 13.47L30.72 22L29.17 22L28.47 20.01L25.17 20.01L24.48 22ZM26.82 15.28L25.58 18.82L28.06 18.82L26.82 15.28ZM36.15 22L34.67 22L34.67 13.47L36.15 13.47L39.97 19.54L39.97 13.47L41.44 13.47L41.44 22L39.96 22L36.15 15.95L36.15 22ZM45.93 18.13L45.93 18.13L45.93 17.46Q45.93 15.53 46.86 14.44Q47.79 13.35 49.44 13.35L49.44 13.35Q50.87 13.35 51.71 14.05Q52.54 14.76 52.71 16.08L52.71 16.08L51.26 16.08Q51.01 14.54 49.47 14.54L49.47 14.54Q48.48 14.54 47.96 15.26Q47.44 15.98 47.42 17.37L47.42 17.37L47.42 18.02Q47.42 19.40 48.01 20.17Q48.59 20.93 49.63 20.93L49.63 20.93Q50.76 20.93 51.24 20.42L51.24 20.42L51.24 18.75L49.48 18.75L49.48 17.62L52.72 17.62L52.72 20.89Q52.26 21.50 51.44 21.81Q50.62 22.12 49.57 22.12L49.57 22.12Q48.50 22.12 47.67 21.63Q46.85 21.14 46.40 20.24Q45.95 19.33 45.93 18.13ZM57.20 19.16L57.20 19.16L57.20 13.47L58.68 13.47L58.68 19.18Q58.68 20.03 59.11 20.48Q59.55 20.93 60.39 20.93L60.39 20.93Q62.10 20.93 62.10 19.13L62.10 19.13L62.10 13.47L63.58 13.47L63.58 19.17Q63.58 20.53 62.71 21.32Q61.84 22.12 60.39 22.12L60.39 22.12Q58.92 22.12 58.06 21.33Q57.20 20.55 57.20 19.16ZM68.93 22L67.39 22L70.61 13.47L71.94 13.47L75.17 22L73.62 22L72.92 20.01L69.62 20.01L68.93 22ZM71.27 15.28L70.03 18.82L72.51 18.82L71.27 15.28ZM78.88 18.13L78.88 18.13L78.88 17.46Q78.88 15.53 79.80 14.44Q80.73 13.35 82.39 13.35L82.39 13.35Q83.81 13.35 84.65 14.05Q85.48 14.76 85.65 16.08L85.65 16.08L84.20 16.08Q83.96 14.54 82.41 14.54L82.41 14.54Q81.42 14.54 80.90 15.26Q80.38 15.98 80.36 17.37L80.36 17.37L80.36 18.02Q80.36 19.40 80.95 20.17Q81.53 20.93 82.57 20.93L82.57 20.93Q83.70 20.93 84.18 20.42L84.18 20.42L84.18 18.75L82.43 18.75L82.43 17.62L85.66 17.62L85.66 20.89Q85.20 21.50 84.38 21.81Q83.56 22.12 82.51 22.12L82.51 22.12Q81.44 22.12 80.62 21.63Q79.79 21.14 79.34 20.24Q78.89 19.33 78.88 18.13ZM95.86 22L90.28 22L90.28 13.47L95.81 13.47L95.81 14.66L91.76 14.66L91.76 17.02L95.26 17.02L95.26 18.19L91.76 18.19L91.76 20.82L95.86 20.82L95.86 22ZM99.62 19.42L99.62 19.42L101.10 19.42Q101.10 20.15 101.58 20.55Q102.06 20.95 102.96 20.95L102.96 20.95Q103.73 20.95 104.12 20.63Q104.51 20.32 104.51 19.80L104.51 19.80Q104.51 19.24 104.11 18.94Q103.72 18.63 102.69 18.32Q101.66 18.01 101.05 17.63L101.05 17.63Q99.88 16.90 99.88 15.72L99.88 15.72Q99.88 14.69 100.72 14.02Q101.56 13.35 102.90 13.35L102.90 13.35Q103.80 13.35 104.49 13.68Q105.19 14.01 105.59 14.61Q105.99 15.22 105.99 15.96L105.99 15.96L104.51 15.96Q104.51 15.29 104.09 14.91Q103.67 14.54 102.89 14.54L102.89 14.54Q102.17 14.54 101.77 14.85Q101.36 15.16 101.36 15.71L101.36 15.71Q101.36 16.18 101.80 16.50Q102.23 16.81 103.23 17.10Q104.22 17.40 104.83 17.78Q105.43 18.16 105.71 18.65Q105.99 19.13 105.99 19.79L105.99 19.79Q105.99 20.86 105.18 21.49Q104.36 22.12 102.96 22.12L102.96 22.12Q102.03 22.12 101.26 21.77Q100.48 21.43 100.05 20.83Q99.62 20.22 99.62 19.42Z" fill="#FFFFFF"/><path class="svg__text" d="M131.53 17.80L131.53 17.80Q131.53 16.54 132.13 15.54Q132.73 14.55 133.78 13.99Q134.83 13.43 136.15 13.43L136.15 13.43Q137.30 13.43 138.22 13.84Q139.15 14.25 139.76 15.02L139.76 15.02L138.25 16.39Q137.44 15.40 136.27 15.40L136.27 15.40Q135.58 15.40 135.05 15.70Q134.52 16 134.22 16.54Q133.93 17.09 133.93 17.80L133.93 17.80Q133.93 18.51 134.22 19.05Q134.52 19.60 135.05 19.90Q135.58 20.20 136.27 20.20L136.27 20.20Q137.44 20.20 138.25 19.22L138.25 19.22L139.76 20.58Q139.15 21.35 138.23 21.76Q137.30 22.17 136.15 22.17L136.15 22.17Q134.83 22.17 133.78 21.61Q132.73 21.05 132.13 20.05Q131.53 19.06 131.53 17.80ZM143.71 21.24L143.71 21.24L144.49 19.49Q145.05 19.86 145.80 20.09Q146.54 20.32 147.26 20.32L147.26 20.32Q148.63 20.32 148.63 19.64L148.63 19.64Q148.63 19.28 148.24 19.11Q147.85 18.93 146.99 18.74L146.99 18.74Q146.04 18.53 145.40 18.30Q144.77 18.06 144.31 17.55Q143.86 17.03 143.86 16.16L143.86 16.16Q143.86 15.39 144.28 14.77Q144.70 14.15 145.53 13.79Q146.37 13.43 147.57 13.43L147.57 13.43Q148.40 13.43 149.20 13.62Q150.01 13.80 150.63 14.17L150.63 14.17L149.89 15.93Q148.69 15.28 147.56 15.28L147.56 15.28Q146.85 15.28 146.53 15.49Q146.21 15.70 146.21 16.04L146.21 16.04Q146.21 16.37 146.59 16.54Q146.98 16.71 147.83 16.89L147.83 16.89Q148.79 17.10 149.42 17.33Q150.05 17.56 150.51 18.07Q150.97 18.58 150.97 19.46L150.97 19.46Q150.97 20.21 150.55 20.83Q150.13 21.44 149.29 21.80Q148.45 22.17 147.25 22.17L147.25 22.17Q146.23 22.17 145.27 21.92Q144.31 21.67 143.71 21.24ZM154.96 21.24L154.96 21.24L155.74 19.49Q156.30 19.86 157.05 20.09Q157.79 20.32 158.51 20.32L158.51 20.32Q159.88 20.32 159.88 19.64L159.88 19.64Q159.88 19.28 159.49 19.11Q159.10 18.93 158.24 18.74L158.24 18.74Q157.29 18.53 156.65 18.30Q156.02 18.06 155.56 17.55Q155.11 17.03 155.11 16.16L155.11 16.16Q155.11 15.39 155.53 14.77Q155.95 14.15 156.78 13.79Q157.62 13.43 158.82 13.43L158.82 13.43Q159.65 13.43 160.45 13.62Q161.26 13.80 161.88 14.17L161.88 14.17L161.14 15.93Q159.94 15.28 158.81 15.28L158.81 15.28Q158.10 15.28 157.78 15.49Q157.46 15.70 157.46 16.04L157.46 16.04Q157.46 16.37 157.84 16.54Q158.23 16.71 159.08 16.89L159.08 16.89Q160.04 17.10 160.67 17.33Q161.30 17.56 161.76 18.07Q162.22 18.58 162.22 19.46L162.22 19.46Q162.22 20.21 161.80 20.83Q161.38 21.44 160.54 21.80Q159.70 22.17 158.50 22.17L158.50 22.17Q157.48 22.17 156.52 21.92Q155.56 21.67 154.96 21.24ZM174.51 23.20L172.49 23.20L176.45 11.90L178.48 11.90L174.51 23.20ZM188.13 20.93L188.13 20.93L189.42 19.40Q190.09 20.27 190.86 20.27L190.86 20.27Q190.87 20.27 190.87 20.27L190.87 20.27Q191.39 20.27 191.66 19.96Q191.93 19.65 191.93 19.05L191.93 19.05L191.93 15.44L189.03 15.44L189.03 13.60L194.28 13.60L194.28 18.91Q194.28 20.54 193.46 21.36Q192.64 22.17 191.04 22.17L191.04 22.17Q190.12 22.17 189.36 21.85Q188.61 21.53 188.13 20.93ZM200.79 22L198.36 22L202.07 13.60L204.41 13.60L208.13 22L205.66 22L205.00 20.37L201.45 20.37L200.79 22ZM203.23 15.93L202.14 18.61L204.30 18.61L203.23 15.93ZM214.87 22L211.28 13.60L213.85 13.60L216.13 19.07L218.45 13.60L220.80 13.60L217.21 22L214.87 22ZM226.38 22L223.95 22L227.66 13.60L230.00 13.60L233.72 22L231.25 22L230.59 20.37L227.04 20.37L226.38 22ZM228.81 15.93L227.73 18.61L229.89 18.61L228.81 15.93ZM237.29 21.24L237.29 21.24L238.07 19.49Q238.63 19.86 239.37 20.09Q240.12 20.32 240.84 20.32L240.84 20.32Q242.20 20.32 242.21 19.64L242.21 19.64Q242.21 19.28 241.82 19.11Q241.43 18.93 240.56 18.74L240.56 18.74Q239.61 18.53 238.98 18.30Q238.34 18.06 237.89 17.55Q237.43 17.03 237.43 16.16L237.43 16.16Q237.43 15.39 237.85 14.77Q238.27 14.15 239.11 13.79Q239.94 13.43 241.15 13.43L241.15 13.43Q241.97 13.43 242.78 13.62Q243.58 13.80 244.20 14.17L244.20 14.17L243.47 15.93Q242.27 15.28 241.14 15.28L241.14 15.28Q240.43 15.28 240.10 15.49Q239.78 15.70 239.78 16.04L239.78 16.04Q239.78 16.37 240.17 16.54Q240.55 16.71 241.40 16.89L241.40 16.89Q242.36 17.10 242.99 17.33Q243.62 17.56 244.08 18.07Q244.55 18.58 244.55 19.46L244.55 19.46Q244.55 20.21 244.13 20.83Q243.71 21.44 242.87 21.80Q242.03 22.17 240.83 22.17L240.83 22.17Q239.81 22.17 238.84 21.92Q237.88 21.67 237.29 21.24ZM248.69 17.80L248.69 17.80Q248.69 16.54 249.29 15.54Q249.89 14.55 250.94 13.99Q251.99 13.43 253.31 13.43L253.31 13.43Q254.47 13.43 255.39 13.84Q256.31 14.25 256.93 15.02L256.93 15.02L255.41 16.39Q254.60 15.40 253.43 15.40L253.43 15.40Q252.75 15.40 252.22 15.70Q251.68 16 251.39 16.54Q251.09 17.09 251.09 17.80L251.09 17.80Q251.09 18.51 251.39 19.05Q251.68 19.60 252.22 19.90Q252.75 20.20 253.43 20.20L253.43 20.20Q254.60 20.20 255.41 19.22L255.41 19.22L256.93 20.58Q256.32 21.35 255.39 21.76Q254.47 22.17 253.31 22.17L253.31 22.17Q251.99 22.17 250.94 21.61Q249.89 21.05 249.29 20.05Q248.69 19.06 248.69 17.80ZM263.84 22L261.46 22L261.46 13.60L265.31 13.60Q266.45 13.60 267.29 13.98Q268.12 14.35 268.58 15.06Q269.04 15.76 269.04 16.71L269.04 16.71Q269.04 17.62 268.61 18.30Q268.18 18.98 267.39 19.36L267.39 19.36L269.20 22L266.66 22L265.14 19.77L263.84 19.77L263.84 22ZM263.84 15.47L263.84 17.93L265.16 17.93Q265.89 17.93 266.26 17.61Q266.64 17.29 266.64 16.71L266.64 16.71Q266.64 16.12 266.26 15.79Q265.89 15.47 265.16 15.47L265.16 15.47L263.84 15.47ZM276.20 22L273.83 22L273.83 13.60L276.20 13.60L276.20 22ZM283.76 22L281.38 22L281.38 13.60L285.22 13.60Q286.36 13.60 287.20 13.98Q288.04 14.35 288.50 15.06Q288.95 15.76 288.95 16.71L288.95 16.71Q288.95 17.66 288.50 18.35Q288.04 19.05 287.20 19.42Q286.36 19.80 285.22 19.80L285.22 19.80L283.76 19.80L283.76 22ZM283.76 15.47L283.76 17.93L285.08 17.93Q285.81 17.93 286.18 17.61Q286.55 17.29 286.55 16.71L286.55 16.71Q286.55 16.12 286.18 15.80Q285.81 15.47 285.08 15.47L285.08 15.47L283.76 15.47ZM295.50 15.48L292.91 15.48L292.91 13.60L300.44 13.60L300.44 15.48L297.87 15.48L297.87 22L295.50 22L295.50 15.48Z" fill="#FFFFFF" x="130.76999999999998"/></svg>