<svg xmlns="http://www.w3.org/2000/svg" width="730.02" height="35" viewBox="0 0 730.02 35"><rect class="svg__rect" x="0" y="0" width="108.43" height="35" fill="#E27225"/><rect class="svg__rect" x="106.43" y="0" width="623.59" height="35" fill="#763000"/><path class="svg__text" d="M19.57 22L14.22 22L14.22 13.47L15.70 13.47L15.70 20.82L19.57 20.82L19.57 22ZM25.26 22L23.79 22L23.79 13.47L25.26 13.47L25.26 22ZM33.18 22L30.07 22L30.07 13.47L33.00 13.47Q34.44 13.47 35.20 14.05Q35.96 14.63 35.96 15.78L35.96 15.78Q35.96 16.36 35.64 16.83Q35.32 17.30 34.71 17.56L34.71 17.56Q35.40 17.75 35.78 18.26Q36.16 18.78 36.16 19.51L36.16 19.51Q36.16 20.71 35.39 21.36Q34.62 22 33.18 22L33.18 22ZM31.56 18.15L31.56 20.82L33.20 20.82Q33.90 20.82 34.29 20.47Q34.68 20.13 34.68 19.51L34.68 19.51Q34.68 18.18 33.32 18.15L33.32 18.15L31.56 18.15ZM31.56 14.66L31.56 17.06L33.01 17.06Q33.70 17.06 34.09 16.75Q34.48 16.43 34.48 15.86L34.48 15.86Q34.48 15.23 34.12 14.95Q33.76 14.66 33.00 14.66L33.00 14.66L31.56 14.66ZM42.11 22L40.63 22L40.63 13.47L43.63 13.47Q45.11 13.47 45.91 14.13Q46.71 14.79 46.71 16.05L46.71 16.05Q46.71 16.90 46.30 17.48Q45.89 18.06 45.15 18.37L45.15 18.37L47.06 21.92L47.06 22L45.48 22L43.77 18.71L42.11 18.71L42.11 22ZM42.11 14.66L42.11 17.52L43.64 17.52Q44.39 17.52 44.81 17.15Q45.23 16.77 45.23 16.11L45.23 16.11Q45.23 15.43 44.84 15.05Q44.45 14.68 43.68 14.66L43.68 14.66L42.11 14.66ZM51.89 22L50.35 22L53.57 13.47L54.90 13.47L58.13 22L56.58 22L55.88 20.01L52.58 20.01L51.89 22ZM54.23 15.28L52.99 18.82L55.47 18.82L54.23 15.28ZM63.56 22L62.08 22L62.08 13.47L65.08 13.47Q66.56 13.47 67.36 14.13Q68.16 14.79 68.16 16.05L68.16 16.05Q68.16 16.90 67.75 17.48Q67.34 18.06 66.60 18.37L66.60 18.37L68.52 21.92L68.52 22L66.93 22L65.22 18.71L63.56 18.71L63.56 22ZM63.56 14.66L63.56 17.52L65.09 17.52Q65.84 17.52 66.26 17.15Q66.68 16.77 66.68 16.11L66.68 16.11Q66.68 15.43 66.29 15.05Q65.90 14.68 65.13 14.66L65.13 14.66L63.56 14.66ZM74.12 22L72.65 22L72.65 13.47L74.12 13.47L74.12 22ZM84.51 22L78.93 22L78.93 13.47L84.47 13.47L84.47 14.66L80.42 14.66L80.42 17.02L83.92 17.02L83.92 18.19L80.42 18.19L80.42 20.82L84.51 20.82L84.51 22ZM88.27 19.42L88.27 19.42L89.76 19.42Q89.76 20.15 90.24 20.55Q90.72 20.95 91.61 20.95L91.61 20.95Q92.39 20.95 92.78 20.63Q93.17 20.32 93.17 19.80L93.17 19.80Q93.17 19.24 92.77 18.94Q92.38 18.63 91.34 18.32Q90.31 18.01 89.70 17.63L89.70 17.63Q88.54 16.90 88.54 15.72L88.54 15.72Q88.54 14.69 89.38 14.02Q90.22 13.35 91.56 13.35L91.56 13.35Q92.45 13.35 93.15 13.68Q93.85 14.01 94.24 14.61Q94.64 15.22 94.64 15.96L94.64 15.96L93.17 15.96Q93.17 15.29 92.75 14.91Q92.33 14.54 91.55 14.54L91.55 14.54Q90.82 14.54 90.42 14.85Q90.02 15.16 90.02 15.71L90.02 15.71Q90.02 16.18 90.45 16.50Q90.89 16.81 91.88 17.10Q92.88 17.40 93.48 17.78Q94.09 18.16 94.37 18.65Q94.65 19.13 94.65 19.79L94.65 19.79Q94.65 20.86 93.83 21.49Q93.01 22.12 91.61 22.12L91.61 22.12Q90.69 22.12 89.91 21.77Q89.14 21.43 88.70 20.83Q88.27 20.22 88.27 19.42Z" fill="#FFFFFF"/><path class="svg__text" d="M123.00 22L120.62 22L120.62 13.60L124.46 13.60Q125.60 13.60 126.44 13.98Q127.28 14.35 127.74 15.06Q128.19 15.76 128.19 16.71L128.19 16.71Q128.19 17.62 127.77 18.30Q127.34 18.98 126.55 19.36L126.55 19.36L128.36 22L125.82 22L124.29 19.77L123.00 19.77L123.00 22ZM123.00 15.47L123.00 17.93L124.32 17.93Q125.05 17.93 125.42 17.61Q125.79 17.29 125.79 16.71L125.79 16.71Q125.79 16.12 125.42 15.79Q125.05 15.47 124.32 15.47L124.32 15.47L123.00 15.47ZM139.73 22L132.98 22L132.98 13.60L139.57 13.60L139.57 15.44L135.34 15.44L135.34 16.85L139.07 16.85L139.07 18.63L135.34 18.63L135.34 20.17L139.73 20.17L139.73 22ZM145.95 22L143.52 22L147.23 13.60L149.57 13.60L153.29 22L150.82 22L150.16 20.37L146.61 20.37L145.95 22ZM148.39 15.93L147.30 18.61L149.46 18.61L148.39 15.93ZM157.02 17.80L157.02 17.80Q157.02 16.54 157.61 15.54Q158.21 14.55 159.26 13.99Q160.32 13.43 161.63 13.43L161.63 13.43Q162.79 13.43 163.71 13.84Q164.63 14.25 165.25 15.02L165.25 15.02L163.74 16.39Q162.92 15.40 161.76 15.40L161.76 15.40Q161.07 15.40 160.54 15.70Q160.00 16 159.71 16.54Q159.41 17.09 159.41 17.80L159.41 17.80Q159.41 18.51 159.71 19.05Q160.00 19.60 160.54 19.90Q161.07 20.20 161.76 20.20L161.76 20.20Q162.92 20.20 163.74 19.22L163.74 19.22L165.25 20.58Q164.64 21.35 163.71 21.76Q162.79 22.17 161.63 22.17L161.63 22.17Q160.32 22.17 159.26 21.61Q158.21 21.05 157.61 20.05Q157.02 19.06 157.02 17.80ZM171.58 15.48L168.99 15.48L168.99 13.60L176.52 13.60L176.52 15.48L173.95 15.48L173.95 22L171.58 22L171.58 15.48ZM186.78 20.93L186.78 20.93L188.08 19.40Q188.74 20.27 189.52 20.27L189.52 20.27Q189.52 20.27 189.53 20.27L189.53 20.27Q190.05 20.27 190.32 19.96Q190.58 19.65 190.58 19.05L190.58 19.05L190.58 15.44L187.68 15.44L187.68 13.60L192.94 13.60L192.94 18.91Q192.94 20.54 192.12 21.36Q191.29 22.17 189.70 22.17L189.70 22.17Q188.77 22.17 188.02 21.85Q187.26 21.53 186.78 20.93ZM197.44 21.24L197.44 21.24L198.22 19.49Q198.78 19.86 199.53 20.09Q200.27 20.32 200.99 20.32L200.99 20.32Q202.36 20.32 202.36 19.64L202.36 19.64Q202.36 19.28 201.97 19.11Q201.58 18.93 200.72 18.74L200.72 18.74Q199.77 18.53 199.13 18.30Q198.49 18.06 198.04 17.55Q197.59 17.03 197.59 16.16L197.59 16.16Q197.59 15.39 198.01 14.77Q198.42 14.15 199.26 13.79Q200.09 13.43 201.30 13.43L201.30 13.43Q202.13 13.43 202.93 13.62Q203.74 13.80 204.35 14.17L204.35 14.17L203.62 15.93Q202.42 15.28 201.29 15.28L201.29 15.28Q200.58 15.28 200.26 15.49Q199.94 15.70 199.94 16.04L199.94 16.04Q199.94 16.37 200.32 16.54Q200.70 16.71 201.55 16.89L201.55 16.89Q202.51 17.10 203.14 17.33Q203.77 17.56 204.24 18.07Q204.70 18.58 204.70 19.46L204.70 19.46Q204.70 20.21 204.28 20.83Q203.86 21.44 203.02 21.80Q202.18 22.17 200.98 22.17L200.98 22.17Q199.96 22.17 199.00 21.92Q198.04 21.67 197.44 21.24ZM216.99 23.20L214.97 23.20L218.93 11.90L220.95 11.90L216.99 23.20ZM234.06 22L231.68 22L231.68 13.60L235.53 13.60Q236.67 13.60 237.51 13.98Q238.34 14.35 238.80 15.06Q239.26 15.76 239.26 16.71L239.26 16.71Q239.26 17.62 238.83 18.30Q238.40 18.98 237.61 19.36L237.61 19.36L239.42 22L236.88 22L235.36 19.77L234.06 19.77L234.06 22ZM234.06 15.47L234.06 17.93L235.38 17.93Q236.11 17.93 236.48 17.61Q236.86 17.29 236.86 16.71L236.86 16.71Q236.86 16.12 236.48 15.79Q236.11 15.47 235.38 15.47L235.38 15.47L234.06 15.47ZM250.79 22L244.05 22L244.05 13.60L250.64 13.60L250.64 15.44L246.40 15.44L246.40 16.85L250.13 16.85L250.13 18.63L246.40 18.63L246.40 20.17L250.79 20.17L250.79 22ZM257.01 22L254.59 22L258.30 13.60L260.64 13.60L264.35 22L261.89 22L261.23 20.37L257.67 20.37L257.01 22ZM259.45 15.93L258.37 18.61L260.53 18.61L259.45 15.93ZM268.08 17.80L268.08 17.80Q268.08 16.54 268.68 15.54Q269.28 14.55 270.33 13.99Q271.38 13.43 272.70 13.43L272.70 13.43Q273.85 13.43 274.78 13.84Q275.70 14.25 276.31 15.02L276.31 15.02L274.80 16.39Q273.99 15.40 272.82 15.40L272.82 15.40Q272.14 15.40 271.60 15.70Q271.07 16 270.77 16.54Q270.48 17.09 270.48 17.80L270.48 17.80Q270.48 18.51 270.77 19.05Q271.07 19.60 271.60 19.90Q272.14 20.20 272.82 20.20L272.82 20.20Q273.99 20.20 274.80 19.22L274.80 19.22L276.31 20.58Q275.70 21.35 274.78 21.76Q273.85 22.17 272.70 22.17L272.70 22.17Q271.38 22.17 270.33 21.61Q269.28 21.05 268.68 20.05Q268.08 19.06 268.08 17.80ZM282.64 15.48L280.06 15.48L280.06 13.60L287.58 13.60L287.58 15.48L285.01 15.48L285.01 22L282.64 22L282.64 15.48ZM295.19 19.46L291.69 19.46L291.69 17.71L295.19 17.71L295.19 19.46ZM302.47 22L300.09 22L300.09 13.60L302.47 13.60L302.47 16.76L305.71 16.76L305.71 13.60L308.08 13.60L308.08 22L305.71 22L305.71 18.72L302.47 18.72L302.47 22ZM312.82 17.80L312.82 17.80Q312.82 16.55 313.42 15.55Q314.02 14.56 315.09 14.00Q316.15 13.43 317.48 13.43L317.48 13.43Q318.81 13.43 319.87 14.00Q320.94 14.56 321.54 15.55Q322.15 16.55 322.15 17.80L322.15 17.80Q322.15 19.05 321.54 20.04Q320.94 21.04 319.88 21.60Q318.82 22.17 317.48 22.17L317.48 22.17Q316.15 22.17 315.09 21.60Q314.02 21.04 313.42 20.04Q312.82 19.05 312.82 17.80ZM315.21 17.80L315.21 17.80Q315.21 18.51 315.52 19.05Q315.82 19.60 316.33 19.90Q316.85 20.20 317.48 20.20L317.48 20.20Q318.12 20.20 318.64 19.90Q319.15 19.60 319.45 19.05Q319.75 18.51 319.75 17.80L319.75 17.80Q319.75 17.09 319.45 16.54Q319.15 16 318.64 15.70Q318.12 15.40 317.48 15.40L317.48 15.40Q316.84 15.40 316.33 15.70Q315.82 16 315.52 16.54Q315.21 17.09 315.21 17.80ZM326.45 17.80L326.45 17.80Q326.45 16.55 327.06 15.55Q327.66 14.56 328.72 14.00Q329.79 13.43 331.12 13.43L331.12 13.43Q332.45 13.43 333.51 14.00Q334.57 14.56 335.18 15.55Q335.79 16.55 335.79 17.80L335.79 17.80Q335.79 19.05 335.18 20.04Q334.57 21.04 333.51 21.60Q332.45 22.17 331.12 22.17L331.12 22.17Q329.79 22.17 328.72 21.60Q327.66 21.04 327.06 20.04Q326.45 19.05 326.45 17.80ZM328.85 17.80L328.85 17.80Q328.85 18.51 329.15 19.05Q329.45 19.60 329.97 19.90Q330.48 20.20 331.12 20.20L331.12 20.20Q331.75 20.20 332.27 19.90Q332.79 19.60 333.08 19.05Q333.38 18.51 333.38 17.80L333.38 17.80Q333.38 17.09 333.08 16.54Q332.79 16 332.27 15.70Q331.75 15.40 331.12 15.40L331.12 15.40Q330.48 15.40 329.96 15.70Q329.45 16 329.15 16.54Q328.85 17.09 328.85 17.80ZM342.87 22L340.51 22L340.51 13.60L342.87 13.60L342.87 17.09L346.12 13.60L348.74 13.60L345.31 17.32L348.92 22L346.16 22L343.75 18.95L342.87 19.90L342.87 22ZM356.26 19.46L352.76 19.46L352.76 17.71L356.26 17.71L356.26 19.46ZM363.54 22L361.16 22L361.16 13.60L367.75 13.60L367.75 15.44L363.54 15.44L363.54 17.28L367.25 17.28L367.25 19.12L363.54 19.12L363.54 22ZM371.92 17.80L371.92 17.80Q371.92 16.55 372.52 15.55Q373.13 14.56 374.19 14.00Q375.25 13.43 376.58 13.43L376.58 13.43Q377.91 13.43 378.98 14.00Q380.04 14.56 380.65 15.55Q381.25 16.55 381.25 17.80L381.25 17.80Q381.25 19.05 380.65 20.04Q380.04 21.04 378.98 21.60Q377.92 22.17 376.58 22.17L376.58 22.17Q375.25 22.17 374.19 21.60Q373.13 21.04 372.52 20.04Q371.92 19.05 371.92 17.80ZM374.32 17.80L374.32 17.80Q374.32 18.51 374.62 19.05Q374.92 19.60 375.44 19.90Q375.95 20.20 376.58 20.20L376.58 20.20Q377.22 20.20 377.74 19.90Q378.25 19.60 378.55 19.05Q378.85 18.51 378.85 17.80L378.85 17.80Q378.85 17.09 378.55 16.54Q378.25 16 377.74 15.70Q377.22 15.40 376.58 15.40L376.58 15.40Q375.95 15.40 375.43 15.70Q374.92 16 374.62 16.54Q374.32 17.09 374.32 17.80ZM388.36 22L385.98 22L385.98 13.60L389.83 13.60Q390.97 13.60 391.81 13.98Q392.65 14.35 393.10 15.06Q393.56 15.76 393.56 16.71L393.56 16.71Q393.56 17.62 393.13 18.30Q392.70 18.98 391.91 19.36L391.91 19.36L393.72 22L391.18 22L389.66 19.77L388.36 19.77L388.36 22ZM388.36 15.47L388.36 17.93L389.68 17.93Q390.41 17.93 390.78 17.61Q391.16 17.29 391.16 16.71L391.16 16.71Q391.16 16.12 390.78 15.79Q390.41 15.47 389.68 15.47L389.68 15.47L388.36 15.47ZM400.54 22L398.35 22L398.35 13.60L400.30 13.60L403.26 18.45L406.14 13.60L408.09 13.60L408.11 22L405.93 22L405.91 17.55L403.75 21.17L402.69 21.17L400.54 17.67L400.54 22ZM420.99 23.20L418.97 23.20L422.93 11.90L424.95 11.90L420.99 23.20ZM438.06 22L435.68 22L435.68 13.60L439.53 13.60Q440.67 13.60 441.51 13.98Q442.34 14.35 442.80 15.06Q443.26 15.76 443.26 16.71L443.26 16.71Q443.26 17.62 442.83 18.30Q442.40 18.98 441.61 19.36L441.61 19.36L443.42 22L440.88 22L439.36 19.77L438.06 19.77L438.06 22ZM438.06 15.47L438.06 17.93L439.38 17.93Q440.11 17.93 440.48 17.61Q440.86 17.29 440.86 16.71L440.86 16.71Q440.86 16.12 440.48 15.79Q440.11 15.47 439.38 15.47L439.38 15.47L438.06 15.47ZM454.79 22L448.05 22L448.05 13.60L454.64 13.60L454.64 15.44L450.40 15.44L450.40 16.85L454.13 16.85L454.13 18.63L450.40 18.63L450.40 20.17L454.79 20.17L454.79 22ZM461.01 22L458.59 22L462.30 13.60L464.64 13.60L468.35 22L465.89 22L465.23 20.37L461.67 20.37L461.01 22ZM463.45 15.93L462.37 18.61L464.53 18.61L463.45 15.93ZM472.08 17.80L472.08 17.80Q472.08 16.54 472.68 15.54Q473.28 14.55 474.33 13.99Q475.38 13.43 476.70 13.43L476.70 13.43Q477.85 13.43 478.78 13.84Q479.70 14.25 480.31 15.02L480.31 15.02L478.80 16.39Q477.99 15.40 476.82 15.40L476.82 15.40Q476.14 15.40 475.60 15.70Q475.07 16 474.77 16.54Q474.48 17.09 474.48 17.80L474.48 17.80Q474.48 18.51 474.77 19.05Q475.07 19.60 475.60 19.90Q476.14 20.20 476.82 20.20L476.82 20.20Q477.99 20.20 478.80 19.22L478.80 19.22L480.31 20.58Q479.70 21.35 478.78 21.76Q477.85 22.17 476.70 22.17L476.70 22.17Q475.38 22.17 474.33 21.61Q473.28 21.05 472.68 20.05Q472.08 19.06 472.08 17.80ZM486.64 15.48L484.06 15.48L484.06 13.60L491.58 13.60L491.58 15.48L489.01 15.48L489.01 22L486.64 22L486.64 15.48ZM499.19 19.46L495.69 19.46L495.69 17.71L499.19 17.71L499.19 19.46ZM505.88 15.48L503.30 15.48L503.30 13.60L510.82 13.60L510.82 15.48L508.26 15.48L508.26 22L505.88 22L505.88 15.48ZM516.61 22L514.19 22L517.90 13.60L520.24 13.60L523.95 22L521.49 22L520.82 20.37L517.27 20.37L516.61 22ZM519.05 15.93L517.97 18.61L520.13 18.61L519.05 15.93ZM532.65 22L528.11 22L528.11 13.60L532.41 13.60Q534.01 13.60 534.86 14.19Q535.70 14.79 535.70 15.79L535.70 15.79Q535.70 16.39 535.40 16.87Q535.10 17.34 534.57 17.62L534.57 17.62Q535.29 17.87 535.69 18.41Q536.10 18.94 536.10 19.70L536.10 19.70Q536.10 20.80 535.21 21.40Q534.32 22 532.65 22L532.65 22ZM530.46 18.58L530.46 20.28L532.46 20.28Q533.70 20.28 533.70 19.43L533.70 19.43Q533.70 18.58 532.46 18.58L532.46 18.58L530.46 18.58ZM530.46 15.31L530.46 16.94L532.09 16.94Q533.29 16.94 533.29 16.12L533.29 16.12Q533.29 15.31 532.09 15.31L532.09 15.31L530.46 15.31ZM547.20 22L540.82 22L540.82 13.60L543.20 13.60L543.20 20.11L547.20 20.11L547.20 22ZM558.37 22L551.62 22L551.62 13.60L558.21 13.60L558.21 15.44L553.98 15.44L553.98 16.85L557.71 16.85L557.71 18.63L553.98 18.63L553.98 20.17L558.37 20.17L558.37 22ZM570.89 23.20L568.86 23.20L572.82 11.90L574.85 11.90L570.89 23.20ZM587.96 22L585.58 22L585.58 13.60L589.42 13.60Q590.56 13.60 591.40 13.98Q592.24 14.35 592.70 15.06Q593.15 15.76 593.15 16.71L593.15 16.71Q593.15 17.62 592.73 18.30Q592.30 18.98 591.51 19.36L591.51 19.36L593.32 22L590.77 22L589.25 19.77L587.96 19.77L587.96 22ZM587.96 15.47L587.96 17.93L589.27 17.93Q590.01 17.93 590.38 17.61Q590.75 17.29 590.75 16.71L590.75 16.71Q590.75 16.12 590.38 15.79Q590.01 15.47 589.27 15.47L589.27 15.47L587.96 15.47ZM604.68 22L597.94 22L597.94 13.60L604.53 13.60L604.53 15.44L600.30 15.44L600.30 16.85L604.03 16.85L604.03 18.63L600.30 18.63L600.30 20.17L604.68 20.17L604.68 22ZM610.91 22L608.48 22L612.19 13.60L614.53 13.60L618.25 22L615.78 22L615.12 20.37L611.57 20.37L610.91 22ZM613.34 15.93L612.26 18.61L614.42 18.61L613.34 15.93ZM621.98 17.80L621.98 17.80Q621.98 16.54 622.57 15.54Q623.17 14.55 624.22 13.99Q625.27 13.43 626.59 13.43L626.59 13.43Q627.75 13.43 628.67 13.84Q629.59 14.25 630.21 15.02L630.21 15.02L628.70 16.39Q627.88 15.40 626.72 15.40L626.72 15.40Q626.03 15.40 625.50 15.70Q624.96 16 624.67 16.54Q624.37 17.09 624.37 17.80L624.37 17.80Q624.37 18.51 624.67 19.05Q624.96 19.60 625.50 19.90Q626.03 20.20 626.72 20.20L626.72 20.20Q627.88 20.20 628.70 19.22L628.70 19.22L630.21 20.58Q629.60 21.35 628.67 21.76Q627.75 22.17 626.59 22.17L626.59 22.17Q625.27 22.17 624.22 21.61Q623.17 21.05 622.57 20.05Q621.98 19.06 621.98 17.80ZM636.54 15.48L633.95 15.48L633.95 13.60L641.48 13.60L641.48 15.48L638.91 15.48L638.91 22L636.54 22L636.54 15.48ZM649.09 19.46L645.58 19.46L645.58 17.71L649.09 17.71L649.09 19.46ZM653.40 21.24L653.40 21.24L654.18 19.49Q654.74 19.86 655.49 20.09Q656.23 20.32 656.95 20.32L656.95 20.32Q658.32 20.32 658.32 19.64L658.32 19.64Q658.32 19.28 657.93 19.11Q657.54 18.93 656.67 18.74L656.67 18.74Q655.73 18.53 655.09 18.30Q654.45 18.06 654.00 17.55Q653.55 17.03 653.55 16.16L653.55 16.16Q653.55 15.39 653.96 14.77Q654.38 14.15 655.22 13.79Q656.05 13.43 657.26 13.43L657.26 13.43Q658.09 13.43 658.89 13.62Q659.70 13.80 660.31 14.17L660.31 14.17L659.58 15.93Q658.38 15.28 657.25 15.28L657.25 15.28Q656.54 15.28 656.22 15.49Q655.90 15.70 655.90 16.04L655.90 16.04Q655.90 16.37 656.28 16.54Q656.66 16.71 657.51 16.89L657.51 16.89Q658.47 17.10 659.10 17.33Q659.73 17.56 660.20 18.07Q660.66 18.58 660.66 19.46L660.66 19.46Q660.66 20.21 660.24 20.83Q659.82 21.44 658.98 21.80Q658.14 22.17 656.94 22.17L656.94 22.17Q655.92 22.17 654.96 21.92Q654.00 21.67 653.40 21.24ZM671.98 22L665.24 22L665.24 13.60L671.83 13.60L671.83 15.44L667.59 15.44L667.59 16.85L671.32 16.85L671.32 18.63L667.59 18.63L667.59 20.17L671.98 20.17L671.98 22ZM683.17 22L676.78 22L676.78 13.60L679.16 13.60L679.16 20.11L683.17 20.11L683.17 22ZM694.33 22L687.59 22L687.59 13.60L694.18 13.60L694.18 15.44L689.94 15.44L689.94 16.85L693.68 16.85L693.68 18.63L689.94 18.63L689.94 20.17L694.33 20.17L694.33 22ZM698.71 17.80L698.71 17.80Q698.71 16.54 699.31 15.54Q699.91 14.55 700.96 13.99Q702.01 13.43 703.33 13.43L703.33 13.43Q704.48 13.43 705.40 13.84Q706.33 14.25 706.94 15.02L706.94 15.02L705.43 16.39Q704.62 15.40 703.45 15.40L703.45 15.40Q702.76 15.40 702.23 15.70Q701.70 16 701.40 16.54Q701.11 17.09 701.11 17.80L701.11 17.80Q701.11 18.51 701.40 19.05Q701.70 19.60 702.23 19.90Q702.76 20.20 703.45 20.20L703.45 20.20Q704.62 20.20 705.43 19.22L705.43 19.22L706.94 20.58Q706.33 21.35 705.41 21.76Q704.48 22.17 703.33 22.17L703.33 22.17Q702.01 22.17 700.96 21.61Q699.91 21.05 699.31 20.05Q698.71 19.06 698.71 17.80ZM713.27 15.48L710.69 15.48L710.69 13.60L718.21 13.60L718.21 15.48L715.64 15.48L715.64 22L713.27 22L713.27 15.48Z" fill="#FFFFFF" x="119.43"/></svg>