<svg xmlns="http://www.w3.org/2000/svg" width="342.97" height="35" viewBox="0 0 342.97 35"><rect class="svg__rect" x="0" y="0" width="140.75" height="35" fill="#656666"/><rect class="svg__rect" x="138.75" y="0" width="204.22000000000003" height="35" fill="#000000"/><path class="svg__text" d="M15.70 22L14.22 22L14.22 13.47L17.48 13.47Q18.91 13.47 19.75 14.21Q20.59 14.96 20.59 16.18L20.59 16.18Q20.59 17.44 19.77 18.13Q18.95 18.83 17.46 18.83L17.46 18.83L15.70 18.83L15.70 22ZM15.70 14.66L15.70 17.64L17.48 17.64Q18.27 17.64 18.69 17.27Q19.10 16.90 19.10 16.19L19.10 16.19Q19.10 15.50 18.68 15.09Q18.26 14.68 17.52 14.66L17.52 14.66L15.70 14.66ZM25.65 22L24.11 22L27.34 13.47L28.67 13.47L31.89 22L30.35 22L29.65 20.01L26.35 20.01L25.65 22ZM28.00 15.28L26.76 18.82L29.23 18.82L28.00 15.28ZM35.58 18.19L35.58 18.19L35.58 17.39Q35.58 16.19 36.01 15.27Q36.44 14.35 37.24 13.85Q38.04 13.35 39.08 13.35L39.08 13.35Q40.50 13.35 41.36 14.12Q42.22 14.89 42.36 16.29L42.36 16.29L40.88 16.29Q40.78 15.37 40.35 14.96Q39.92 14.55 39.08 14.55L39.08 14.55Q38.12 14.55 37.60 15.26Q37.08 15.96 37.07 17.33L37.07 17.33L37.07 18.09Q37.07 19.47 37.56 20.20Q38.06 20.92 39.01 20.92L39.01 20.92Q39.89 20.92 40.33 20.53Q40.77 20.14 40.88 19.22L40.88 19.22L42.36 19.22Q42.23 20.59 41.35 21.35Q40.47 22.12 39.01 22.12L39.01 22.12Q37.99 22.12 37.22 21.63Q36.44 21.15 36.02 20.26Q35.60 19.37 35.58 18.19ZM48.15 22L46.67 22L46.67 13.47L48.15 13.47L48.15 17.47L48.98 16.46L51.47 13.47L53.26 13.47L50.09 17.25L53.45 22L51.69 22L49.12 18.31L48.15 19.34L48.15 22ZM58.00 22L56.46 22L59.69 13.47L61.02 13.47L64.24 22L62.70 22L62.00 20.01L58.70 20.01L58.00 22ZM60.35 15.28L59.11 18.82L61.58 18.82L60.35 15.28ZM67.95 18.13L67.95 18.13L67.95 17.46Q67.95 15.53 68.88 14.44Q69.81 13.35 71.46 13.35L71.46 13.35Q72.89 13.35 73.72 14.05Q74.56 14.76 74.73 16.08L74.73 16.08L73.28 16.08Q73.03 14.54 71.49 14.54L71.49 14.54Q70.50 14.54 69.98 15.26Q69.46 15.98 69.44 17.37L69.44 17.37L69.44 18.02Q69.44 19.40 70.02 20.17Q70.61 20.93 71.64 20.93L71.64 20.93Q72.78 20.93 73.26 20.42L73.26 20.42L73.26 18.75L71.50 18.75L71.50 17.62L74.74 17.62L74.74 20.89Q74.28 21.50 73.46 21.81Q72.64 22.12 71.59 22.12L71.59 22.12Q70.52 22.12 69.69 21.63Q68.87 21.14 68.42 20.24Q67.97 19.33 67.95 18.13ZM84.93 22L79.36 22L79.36 13.47L84.89 13.47L84.89 14.66L80.84 14.66L80.84 17.02L84.34 17.02L84.34 18.19L80.84 18.19L80.84 20.82L84.93 20.82L84.93 22ZM91.75 18.95L88.68 18.95L88.68 17.80L91.75 17.80L91.75 18.95ZM97.54 22L96.06 22L96.06 13.47L97.54 13.47L101.35 19.54L101.35 13.47L102.82 13.47L102.82 22L101.34 22L97.54 15.95L97.54 22ZM109.05 22L107.56 22L107.56 13.47L110.83 13.47Q112.26 13.47 113.10 14.21Q113.94 14.96 113.94 16.18L113.94 16.18Q113.94 17.44 113.11 18.13Q112.29 18.83 110.81 18.83L110.81 18.83L109.05 18.83L109.05 22ZM109.05 14.66L109.05 17.64L110.83 17.64Q111.62 17.64 112.03 17.27Q112.45 16.90 112.45 16.19L112.45 16.19Q112.45 15.50 112.03 15.09Q111.61 14.68 110.87 14.66L110.87 14.66L109.05 14.66ZM119.70 22L118.22 22L118.22 13.47L120.14 13.47L122.60 20.01L125.06 13.47L126.97 13.47L126.97 22L125.50 22L125.50 19.19L125.64 15.43L123.13 22L122.06 22L119.55 15.43L119.70 19.19L119.70 22Z" fill="#FFFFFF"/><path class="svg__text" d="M155.32 22L152.94 22L152.94 13.60L156.78 13.60Q157.92 13.60 158.76 13.98Q159.60 14.35 160.06 15.06Q160.51 15.76 160.51 16.71L160.51 16.71Q160.51 17.62 160.09 18.30Q159.66 18.98 158.87 19.36L158.87 19.36L160.68 22L158.14 22L156.61 19.77L155.32 19.77L155.32 22ZM155.32 15.47L155.32 17.93L156.64 17.93Q157.37 17.93 157.74 17.61Q158.11 17.29 158.11 16.71L158.11 16.71Q158.11 16.12 157.74 15.79Q157.37 15.47 156.64 15.47L156.64 15.47L155.32 15.47ZM172.05 22L165.30 22L165.30 13.60L171.89 13.60L171.89 15.44L167.66 15.44L167.66 16.85L171.39 16.85L171.39 18.63L167.66 18.63L167.66 20.17L172.05 20.17L172.05 22ZM178.27 22L175.84 22L179.55 13.60L181.89 13.60L185.61 22L183.14 22L182.48 20.37L178.93 20.37L178.27 22ZM180.71 15.93L179.62 18.61L181.78 18.61L180.71 15.93ZM189.34 17.80L189.34 17.80Q189.34 16.54 189.93 15.54Q190.53 14.55 191.58 13.99Q192.64 13.43 193.95 13.43L193.95 13.43Q195.11 13.43 196.03 13.84Q196.95 14.25 197.57 15.02L197.57 15.02L196.06 16.39Q195.24 15.40 194.08 15.40L194.08 15.40Q193.39 15.40 192.86 15.70Q192.32 16 192.03 16.54Q191.73 17.09 191.73 17.80L191.73 17.80Q191.73 18.51 192.03 19.05Q192.32 19.60 192.86 19.90Q193.39 20.20 194.08 20.20L194.08 20.20Q195.24 20.20 196.06 19.22L196.06 19.22L197.57 20.58Q196.96 21.35 196.03 21.76Q195.11 22.17 193.95 22.17L193.95 22.17Q192.64 22.17 191.58 21.61Q190.53 21.05 189.93 20.05Q189.34 19.06 189.34 17.80ZM203.90 15.48L201.31 15.48L201.31 13.60L208.84 13.60L208.84 15.48L206.27 15.48L206.27 22L203.90 22L203.90 15.48ZM216.45 19.46L212.94 19.46L212.94 17.71L216.45 17.71L216.45 19.46ZM223.68 22L221.35 22L221.35 13.60L223.30 13.60L227.01 18.07L227.01 13.60L229.34 13.60L229.34 22L227.39 22L223.68 17.52L223.68 22ZM236.70 22L234.50 22L234.50 13.60L236.46 13.60L239.41 18.45L242.29 13.60L244.24 13.60L244.27 22L242.09 22L242.06 17.55L239.90 21.17L238.85 21.17L236.70 17.67L236.70 22ZM251.81 22L249.43 22L249.43 13.60L253.27 13.60Q254.41 13.60 255.25 13.98Q256.09 14.35 256.55 15.06Q257.01 15.76 257.01 16.71L257.01 16.71Q257.01 17.66 256.55 18.35Q256.09 19.05 255.25 19.42Q254.41 19.80 253.27 19.80L253.27 19.80L251.81 19.80L251.81 22ZM251.81 15.47L251.81 17.93L253.13 17.93Q253.86 17.93 254.23 17.61Q254.60 17.29 254.60 16.71L254.60 16.71Q254.60 16.12 254.23 15.80Q253.86 15.47 253.13 15.47L253.13 15.47L251.81 15.47ZM265.00 19.46L261.49 19.46L261.49 17.71L265.00 17.71L265.00 19.46ZM272.09 22L269.90 22L269.90 13.60L271.85 13.60L274.81 18.45L277.69 13.60L279.64 13.60L279.66 22L277.48 22L277.46 17.55L275.30 21.17L274.24 21.17L272.09 17.67L272.09 22ZM284.40 17.80L284.40 17.80Q284.40 16.55 285.00 15.55Q285.61 14.56 286.67 14.00Q287.73 13.43 289.06 13.43L289.06 13.43Q290.39 13.43 291.46 14.00Q292.52 14.56 293.13 15.55Q293.73 16.55 293.73 17.80L293.73 17.80Q293.73 19.05 293.13 20.04Q292.52 21.04 291.46 21.60Q290.40 22.17 289.06 22.17L289.06 22.17Q287.73 22.17 286.67 21.60Q285.61 21.04 285.00 20.04Q284.40 19.05 284.40 17.80ZM286.80 17.80L286.80 17.80Q286.80 18.51 287.10 19.05Q287.40 19.60 287.91 19.90Q288.43 20.20 289.06 20.20L289.06 20.20Q289.70 20.20 290.22 19.90Q290.73 19.60 291.03 19.05Q291.33 18.51 291.33 17.80L291.33 17.80Q291.33 17.09 291.03 16.54Q290.73 16 290.22 15.70Q289.70 15.40 289.06 15.40L289.06 15.40Q288.42 15.40 287.91 15.70Q287.40 16 287.10 16.54Q286.80 17.09 286.80 17.80ZM302.43 22L298.46 22L298.46 13.60L302.43 13.60Q303.82 13.60 304.88 14.12Q305.95 14.63 306.54 15.58Q307.13 16.53 307.13 17.80L307.13 17.80Q307.13 19.07 306.54 20.02Q305.95 20.97 304.88 21.48Q303.82 22 302.43 22L302.43 22ZM300.84 15.50L300.84 20.10L302.34 20.10Q303.42 20.10 304.07 19.49Q304.73 18.88 304.73 17.80L304.73 17.80Q304.73 16.72 304.07 16.11Q303.42 15.50 302.34 15.50L302.34 15.50L300.84 15.50ZM313.27 22L310.85 22L314.56 13.60L316.90 13.60L320.62 22L318.15 22L317.49 20.37L313.94 20.37L313.27 22ZM315.71 15.93L314.63 18.61L316.79 18.61L315.71 15.93ZM331.16 22L324.77 22L324.77 13.60L327.15 13.60L327.15 20.11L331.16 20.11L331.16 22Z" fill="#FFFFFF" x="151.75"/></svg>